<svg xmlns="http://www.w3.org/2000/svg" xmlns:xlink="http://www.w3.org/1999/xlink" width="40" zoomAndPan="magnify" viewBox="0 0 30 30.000001" height="40" preserveAspectRatio="xMidYMid meet" version="1.0"><defs><clipPath id="1efbb11b87"><path d="M 3.738281 3.546875 L 26.238281 3.546875 L 26.238281 26 L 3.738281 26 Z M 3.738281 3.546875 " clip-rule="nonzero"/></clipPath></defs><g clip-path="url(#1efbb11b87)"><path fill="#ffffff" d="M 14.980469 3.566406 C 8.730469 3.585938 3.738281 8.652344 3.820312 14.886719 C 3.835938 16.148438 4.058594 17.375 4.492188 18.5625 C 4.925781 19.75 5.542969 20.832031 6.347656 21.808594 C 6.476562 21.964844 6.550781 22.144531 6.566406 22.347656 C 6.585938 22.550781 6.542969 22.738281 6.445312 22.917969 L 5.480469 24.640625 C 5.214844 25.117188 5.648438 25.683594 6.179688 25.550781 L 9.449219 24.71875 C 9.683594 24.660156 9.910156 24.683594 10.128906 24.789062 C 11.589844 25.496094 13.132812 25.871094 14.757812 25.902344 C 21.039062 26.046875 26.195312 21.039062 26.214844 14.773438 C 26.234375 8.574219 21.191406 3.546875 14.980469 3.566406 Z M 15.015625 24.53125 C 14.371094 24.53125 13.734375 24.46875 13.101562 24.34375 C 12.46875 24.21875 11.855469 24.03125 11.257812 23.785156 C 10.664062 23.539062 10.097656 23.238281 9.5625 22.878906 C 9.027344 22.523438 8.53125 22.117188 8.074219 21.660156 C 7.617188 21.207031 7.210938 20.710938 6.851562 20.179688 C 6.496094 19.644531 6.191406 19.078125 5.945312 18.484375 C 5.699219 17.890625 5.511719 17.277344 5.386719 16.648438 C 5.261719 16.015625 5.199219 15.378906 5.199219 14.738281 C 5.199219 9.328125 9.59375 4.941406 15.015625 4.941406 C 20.417969 4.941406 24.800781 9.292969 24.835938 14.671875 C 24.871094 20.070312 20.429688 24.53125 15.015625 24.53125 Z M 15.015625 24.53125 " fill-opacity="1" fill-rule="nonzero"/></g><path fill="#ffffff" d="M 13.261719 9.976562 L 13.265625 9.984375 L 13.851562 11.140625 C 13.984375 11.398438 14.023438 11.671875 13.972656 11.953125 C 13.921875 12.238281 13.789062 12.480469 13.578125 12.675781 C 13.367188 12.871094 13.234375 13.109375 13.183594 13.390625 C 13.132812 13.675781 13.167969 13.945312 13.296875 14.199219 C 13.648438 14.90625 14.257812 15.875 15.1875 16.574219 C 15.402344 16.738281 15.640625 16.824219 15.90625 16.839844 C 16.175781 16.851562 16.421875 16.789062 16.652344 16.652344 L 17.03125 16.421875 C 17.390625 16.203125 17.769531 16.167969 18.167969 16.316406 L 19.667969 16.886719 C 19.828125 16.949219 19.972656 17.039062 20.097656 17.15625 C 20.222656 17.273438 20.320312 17.410156 20.390625 17.566406 C 20.460938 17.726562 20.5 17.890625 20.503906 18.0625 C 20.507812 18.234375 20.480469 18.398438 20.417969 18.558594 C 20.402344 18.605469 20.382812 18.652344 20.359375 18.695312 L 19.945312 19.496094 C 19.804688 19.765625 19.597656 19.964844 19.320312 20.085938 C 19.042969 20.210938 18.753906 20.234375 18.460938 20.15625 C 16.105469 19.550781 10.496094 17.4375 10.042969 11.050781 C 10.023438 10.792969 10.078125 10.550781 10.207031 10.324219 C 10.335938 10.097656 10.515625 9.925781 10.746094 9.804688 L 11.511719 9.414062 C 11.664062 9.335938 11.828125 9.289062 12 9.273438 C 12.171875 9.261719 12.339844 9.28125 12.503906 9.332031 C 12.667969 9.386719 12.816406 9.46875 12.945312 9.578125 C 13.078125 9.691406 13.183594 9.820312 13.261719 9.976562 Z M 13.261719 9.976562 " fill-opacity="1" fill-rule="nonzero"/></svg>