<svg xmlns="http://www.w3.org/2000/svg" xmlns:xlink="http://www.w3.org/1999/xlink" width="205" zoomAndPan="magnify" viewBox="0 0 153.75 30.000001" height="40" preserveAspectRatio="xMidYMid meet" version="1.0"><defs><g/></defs><g fill="#ffffff" fill-opacity="1"><g transform="translate(21.184943, 22.312776)"><g><path d="M 15.28125 -19.40625 C 15.488281 -20.882812 15.660156 -21.867188 15.796875 -22.359375 C 15.984375 -22.984375 16.210938 -23.421875 16.484375 -23.671875 C 16.835938 -23.972656 17.328125 -24.160156 17.953125 -24.234375 C 18.203125 -24.273438 18.570312 -24.296875 19.0625 -24.296875 C 19.550781 -24.296875 20.164062 -24.296875 20.90625 -24.296875 L 18.359375 -6.1875 L 18.1875 -4.890625 C 18.09375 -4.171875 18.007812 -3.566406 17.9375 -3.078125 C 17.875 -2.597656 17.804688 -2.242188 17.734375 -2.015625 C 17.554688 -1.296875 17.28125 -0.796875 16.90625 -0.515625 C 16.625 -0.335938 16.234375 -0.203125 15.734375 -0.109375 C 15.242188 -0.0351562 14.210938 0 12.640625 0 L 4.859375 0 C 4.078125 0 3.425781 -0.015625 2.90625 -0.046875 C 2.382812 -0.0859375 1.992188 -0.117188 1.734375 -0.140625 C 1.273438 -0.234375 0.925781 -0.394531 0.6875 -0.625 C 0.457031 -0.925781 0.34375 -1.34375 0.34375 -1.875 C 0.34375 -1.988281 0.347656 -2.109375 0.359375 -2.234375 C 0.367188 -2.367188 0.375 -2.503906 0.375 -2.640625 C 0.425781 -2.847656 0.472656 -3.132812 0.515625 -3.5 C 0.566406 -3.875 0.625 -4.335938 0.6875 -4.890625 C 0.738281 -5.304688 0.8125 -5.820312 0.90625 -6.4375 C 1 -7.050781 1.09375 -7.773438 1.1875 -8.609375 C 1.300781 -9.441406 1.398438 -10.164062 1.484375 -10.78125 C 1.578125 -11.394531 1.660156 -11.910156 1.734375 -12.328125 C 1.847656 -13.066406 1.941406 -13.664062 2.015625 -14.125 C 2.085938 -14.59375 2.144531 -14.941406 2.1875 -15.171875 C 2.375 -15.816406 2.59375 -16.269531 2.84375 -16.53125 C 3.144531 -16.832031 3.570312 -17.015625 4.125 -17.078125 C 4.382812 -17.128906 4.742188 -17.164062 5.203125 -17.1875 C 5.671875 -17.207031 6.226562 -17.21875 6.875 -17.21875 L 14.96875 -17.21875 Z M 7.84375 -12.328125 C 7.6875 -12.328125 7.539062 -12.328125 7.40625 -12.328125 C 7.28125 -12.328125 7.1875 -12.316406 7.125 -12.296875 C 6.957031 -12.296875 6.835938 -12.234375 6.765625 -12.109375 C 6.722656 -12.066406 6.664062 -11.941406 6.59375 -11.734375 C 6.59375 -11.617188 6.5625 -11.390625 6.5 -11.046875 L 5.625 -4.890625 L 11.84375 -4.890625 C 12.09375 -4.890625 12.285156 -4.894531 12.421875 -4.90625 C 12.566406 -4.925781 12.671875 -4.9375 12.734375 -4.9375 C 12.898438 -4.976562 13.003906 -5.019531 13.046875 -5.0625 C 13.171875 -5.132812 13.242188 -5.273438 13.265625 -5.484375 C 13.304688 -5.554688 13.335938 -5.648438 13.359375 -5.765625 C 13.390625 -5.878906 13.414062 -6.019531 13.4375 -6.1875 L 14.265625 -12.328125 Z M 7.84375 -12.328125 "/></g></g></g><g fill="#ffffff" fill-opacity="1"><g transform="translate(41.358607, 22.312776)"><g><path d="M 2.078125 -12.328125 C 2.285156 -13.640625 2.425781 -14.503906 2.5 -14.921875 C 2.664062 -15.671875 2.894531 -16.191406 3.1875 -16.484375 C 3.46875 -16.816406 3.898438 -17.015625 4.484375 -17.078125 C 4.960938 -17.148438 5.78125 -17.1875 6.9375 -17.1875 L 20.28125 -17.1875 C 20.1875 -16.46875 20.097656 -15.875 20.015625 -15.40625 C 19.929688 -14.945312 19.859375 -14.59375 19.796875 -14.34375 C 19.609375 -13.644531 19.351562 -13.171875 19.03125 -12.921875 C 18.726562 -12.640625 18.207031 -12.460938 17.46875 -12.390625 C 17.226562 -12.367188 16.878906 -12.351562 16.421875 -12.34375 C 15.960938 -12.332031 15.359375 -12.328125 14.609375 -12.328125 L 8.71875 -12.328125 C 8.457031 -12.328125 8.238281 -12.328125 8.0625 -12.328125 C 7.894531 -12.328125 7.765625 -12.316406 7.671875 -12.296875 C 7.535156 -12.296875 7.394531 -12.25 7.25 -12.15625 C 7.132812 -12.101562 7.046875 -11.960938 6.984375 -11.734375 C 6.953125 -11.660156 6.925781 -11.554688 6.90625 -11.421875 C 6.882812 -11.285156 6.851562 -11.097656 6.8125 -10.859375 L 5.96875 -4.859375 C 5.8125 -3.566406 5.675781 -2.6875 5.5625 -2.21875 C 5.488281 -1.914062 5.40625 -1.644531 5.3125 -1.40625 C 5.21875 -1.164062 5.101562 -0.960938 4.96875 -0.796875 C 4.707031 -0.515625 4.347656 -0.304688 3.890625 -0.171875 C 3.660156 -0.128906 3.25 -0.0859375 2.65625 -0.046875 C 2.0625 -0.015625 1.289062 0 0.34375 0 Z M 2.078125 -12.328125 "/></g></g></g><g fill="#ffffff" fill-opacity="1"><g transform="translate(61.428118, 22.312776)"><g><path d="M 8.6875 -24.296875 L 7.875 -18.5 L 2.953125 -18.5 L 3.0625 -19.4375 C 3.175781 -20.113281 3.265625 -20.671875 3.328125 -21.109375 C 3.398438 -21.546875 3.457031 -21.867188 3.5 -22.078125 C 3.664062 -22.816406 3.898438 -23.335938 4.203125 -23.640625 C 4.503906 -23.941406 4.929688 -24.128906 5.484375 -24.203125 C 5.972656 -24.265625 7.039062 -24.296875 8.6875 -24.296875 Z M 2.78125 -17.21875 L 7.703125 -17.21875 L 6.703125 -10.203125 L 5.96875 -4.859375 C 5.78125 -3.660156 5.644531 -2.835938 5.5625 -2.390625 C 5.46875 -1.816406 5.300781 -1.351562 5.0625 -1 C 4.789062 -0.582031 4.332031 -0.304688 3.6875 -0.171875 C 3.445312 -0.128906 3.050781 -0.0859375 2.5 -0.046875 C 1.945312 -0.015625 1.226562 0 0.34375 0 L 1.59375 -8.8125 Z M 2.78125 -17.21875 "/></g></g></g><g fill="#ffffff" fill-opacity="1"><g transform="translate(69.41427, 22.312776)"><g><path d="M 1.390625 -17.21875 C 2.128906 -17.21875 2.738281 -17.21875 3.21875 -17.21875 C 3.707031 -17.21875 4.070312 -17.195312 4.3125 -17.15625 C 5.070312 -17.082031 5.59375 -16.882812 5.875 -16.5625 C 6.238281 -16.21875 6.488281 -15.628906 6.625 -14.796875 C 6.675781 -14.585938 6.734375 -14.28125 6.796875 -13.875 C 6.867188 -13.46875 6.941406 -12.960938 7.015625 -12.359375 L 8.0625 -4.890625 L 11.046875 -4.890625 C 11.253906 -4.890625 11.421875 -4.894531 11.546875 -4.90625 C 11.671875 -4.925781 11.769531 -4.9375 11.84375 -4.9375 C 11.957031 -4.957031 12.046875 -5 12.109375 -5.0625 C 12.179688 -5.132812 12.226562 -5.226562 12.25 -5.34375 C 12.320312 -5.457031 12.367188 -5.722656 12.390625 -6.140625 L 13.125 -11.390625 L 13.953125 -17.21875 L 14.65625 -17.21875 C 15.132812 -17.21875 15.539062 -17.21875 15.875 -17.21875 C 16.21875 -17.21875 16.492188 -17.195312 16.703125 -17.15625 C 17.441406 -17.082031 17.925781 -16.921875 18.15625 -16.671875 C 18.382812 -16.429688 18.5 -15.988281 18.5 -15.34375 L 18.5 -15.109375 C 18.5 -14.691406 18.394531 -13.753906 18.1875 -12.296875 L 17.15625 -4.890625 C 17.0625 -4.171875 16.972656 -3.582031 16.890625 -3.125 C 16.804688 -2.664062 16.734375 -2.304688 16.671875 -2.046875 C 16.523438 -1.421875 16.328125 -0.984375 16.078125 -0.734375 C 15.773438 -0.429688 15.367188 -0.234375 14.859375 -0.140625 C 14.628906 -0.117188 14.273438 -0.0859375 13.796875 -0.046875 C 13.328125 -0.015625 12.734375 0 12.015625 0 L 8.75 0 C 7.84375 0 7.101562 -0.015625 6.53125 -0.046875 C 5.96875 -0.0859375 5.5625 -0.128906 5.3125 -0.171875 C 4.800781 -0.304688 4.40625 -0.523438 4.125 -0.828125 C 3.945312 -1.085938 3.765625 -1.503906 3.578125 -2.078125 C 3.554688 -2.335938 3.503906 -2.695312 3.421875 -3.15625 C 3.335938 -3.625 3.238281 -4.203125 3.125 -4.890625 L 2.25 -10.9375 Z M 1.390625 -17.21875 "/></g></g></g><g fill="#ffffff" fill-opacity="1"><g transform="translate(88.268513, 22.312776)"><g><path d="M 7.4375 -17.21875 L 15 -17.21875 C 15.625 -17.21875 16.144531 -17.21875 16.5625 -17.21875 C 16.976562 -17.21875 17.289062 -17.207031 17.5 -17.1875 C 18.257812 -17.113281 18.78125 -16.972656 19.0625 -16.765625 C 19.382812 -16.535156 19.546875 -16.0625 19.546875 -15.34375 C 19.546875 -15.25 19.546875 -15.140625 19.546875 -15.015625 C 19.546875 -14.890625 19.535156 -14.742188 19.515625 -14.578125 C 19.492188 -14.390625 19.457031 -14.109375 19.40625 -13.734375 C 19.363281 -13.367188 19.304688 -12.910156 19.234375 -12.359375 L 19.03125 -11.046875 C 18.9375 -10.347656 18.851562 -9.769531 18.78125 -9.3125 C 18.707031 -8.863281 18.640625 -8.523438 18.578125 -8.296875 C 18.429688 -7.671875 18.210938 -7.1875 17.921875 -6.84375 C 17.566406 -6.539062 17.066406 -6.351562 16.421875 -6.28125 C 15.984375 -6.21875 15.148438 -6.1875 13.921875 -6.1875 L 6.625 -6.1875 C 6.351562 -6.1875 6.179688 -6.171875 6.109375 -6.140625 C 5.992188 -6.140625 5.898438 -6.109375 5.828125 -6.046875 C 5.785156 -5.992188 5.738281 -5.851562 5.6875 -5.625 C 5.6875 -5.53125 5.65625 -5.285156 5.59375 -4.890625 L 13.234375 -4.890625 C 14.597656 -4.890625 15.460938 -4.859375 15.828125 -4.796875 C 16.390625 -4.722656 16.773438 -4.546875 16.984375 -4.265625 C 17.253906 -3.992188 17.398438 -3.488281 17.421875 -2.75 C 17.472656 -2.539062 17.5 -2.257812 17.5 -1.90625 C 17.5 -1.5625 17.5 -1.125 17.5 -0.59375 L 17.5 -0.03125 L 4.375 -0.03125 C 3.675781 -0.03125 3.101562 -0.046875 2.65625 -0.078125 C 2.207031 -0.117188 1.851562 -0.148438 1.59375 -0.171875 C 1.113281 -0.304688 0.769531 -0.523438 0.5625 -0.828125 C 0.414062 -1.085938 0.34375 -1.445312 0.34375 -1.90625 L 0.34375 -2.15625 C 0.363281 -2.59375 0.46875 -3.519531 0.65625 -4.9375 L 1.703125 -12.359375 C 1.816406 -12.984375 1.90625 -13.5 1.96875 -13.90625 C 2.039062 -14.3125 2.09375 -14.617188 2.125 -14.828125 C 2.300781 -15.679688 2.539062 -16.25 2.84375 -16.53125 C 3.21875 -16.851562 3.707031 -17.046875 4.3125 -17.109375 C 4.789062 -17.179688 5.832031 -17.21875 7.4375 -17.21875 Z M 7.5 -12.328125 C 7.15625 -12.328125 6.957031 -12.316406 6.90625 -12.296875 C 6.863281 -12.296875 6.796875 -12.25 6.703125 -12.15625 C 6.679688 -12.125 6.660156 -12.078125 6.640625 -12.015625 C 6.628906 -11.960938 6.601562 -11.90625 6.5625 -11.84375 C 6.5625 -11.75 6.523438 -11.492188 6.453125 -11.078125 L 13.640625 -11.078125 C 13.828125 -11.097656 13.96875 -11.15625 14.0625 -11.25 C 14.132812 -11.320312 14.171875 -11.414062 14.171875 -11.53125 C 14.191406 -11.664062 14.222656 -11.929688 14.265625 -12.328125 Z M 7.5 -12.328125 "/></g></g></g><g fill="#ffffff" fill-opacity="1"><g transform="translate(108.129673, 22.312776)"><g><path d="M 2.078125 -12.296875 C 2.191406 -13.097656 2.289062 -13.75 2.375 -14.25 C 2.457031 -14.75 2.519531 -15.113281 2.5625 -15.34375 C 2.769531 -16.019531 3.050781 -16.472656 3.40625 -16.703125 C 3.675781 -16.910156 4.09375 -17.046875 4.65625 -17.109375 C 4.863281 -17.160156 5.132812 -17.1875 5.46875 -17.1875 C 5.800781 -17.1875 6.1875 -17.1875 6.625 -17.1875 L 16.390625 -17.1875 C 16.847656 -17.1875 17.242188 -17.1875 17.578125 -17.1875 C 17.921875 -17.1875 18.195312 -17.160156 18.40625 -17.109375 C 18.882812 -17.046875 19.21875 -16.921875 19.40625 -16.734375 C 19.6875 -16.523438 19.847656 -16.117188 19.890625 -15.515625 L 19.890625 -15.28125 C 19.890625 -14.8125 19.785156 -13.816406 19.578125 -12.296875 L 19.40625 -11.046875 L 18.71875 -6.140625 L 18.546875 -4.859375 C 18.453125 -4.160156 18.367188 -3.582031 18.296875 -3.125 C 18.222656 -2.664062 18.15625 -2.316406 18.09375 -2.078125 C 18.019531 -1.804688 17.9375 -1.554688 17.84375 -1.328125 C 17.75 -1.109375 17.632812 -0.929688 17.5 -0.796875 C 17.21875 -0.492188 16.789062 -0.273438 16.21875 -0.140625 C 15.976562 -0.117188 15.582031 -0.0859375 15.03125 -0.046875 C 14.476562 -0.015625 13.773438 0 12.921875 0 L 13.609375 -4.859375 L 13.78125 -6.140625 L 14.484375 -11.046875 L 14.65625 -12.296875 L 8.296875 -12.296875 C 8.203125 -12.316406 8.113281 -12.328125 8.03125 -12.328125 C 7.957031 -12.328125 7.882812 -12.328125 7.8125 -12.328125 C 7.675781 -12.328125 7.582031 -12.316406 7.53125 -12.296875 C 7.414062 -12.296875 7.300781 -12.257812 7.1875 -12.1875 C 7.09375 -12.09375 7.007812 -11.953125 6.9375 -11.765625 C 6.9375 -11.671875 6.90625 -11.429688 6.84375 -11.046875 L 6.140625 -6.140625 L 5.96875 -4.859375 C 5.875 -4.097656 5.773438 -3.46875 5.671875 -2.96875 C 5.566406 -2.46875 5.484375 -2.09375 5.421875 -1.84375 C 5.273438 -1.28125 5.019531 -0.851562 4.65625 -0.5625 C 4.351562 -0.351562 3.890625 -0.1875 3.265625 -0.0625 C 3.035156 -0.0390625 2.675781 -0.0234375 2.1875 -0.015625 C 1.695312 -0.00390625 1.082031 0 0.34375 0 L 1.046875 -4.859375 L 1.21875 -6.140625 L 1.90625 -11.046875 Z M 2.078125 -12.296875 "/></g></g></g></svg>
